<svg width="188" height="27" viewBox="0 0 188 27" fill="none" xmlns="http://www.w3.org/2000/svg">
<g clip-path="url(#clip0_25_9)">
<path d="M14.8548 16.589V20.4366H0V2.60083H3.71969V16.589H14.8548Z" fill="#10100E"/>
<path d="M19.7983 5.66863V20.4365H16.2822V5.66863H19.7983ZM19.7983 0.377686V4.11381H16.2822V0.377686H19.7983Z" fill="#10100E"/>
<path d="M24.6136 14.9086C24.6136 15.3158 24.7155 15.6463 24.8942 15.927C25.072 16.2077 25.3526 16.4363 25.786 16.6149C26.1934 16.7936 26.7286 16.9205 27.4166 16.9975C28.1048 17.0732 28.9195 17.1242 29.9131 17.1242C30.8557 17.1242 31.6457 17.0992 32.2317 17.0482C32.818 17.0225 33.2514 16.9465 33.5829 16.8185C33.8884 16.717 34.0922 16.5639 34.194 16.3604C34.2958 16.1817 34.3468 15.927 34.3468 15.6463C34.3468 15.3668 34.2958 15.1372 34.194 14.9592C34.0922 14.7806 33.8625 14.6529 33.5319 14.5509C33.1745 14.4489 32.6911 14.3733 32.0541 14.2963C31.417 14.2453 30.5503 14.1694 29.4807 14.0928C28.1556 13.9907 27.0093 13.863 26.0146 13.7362C25.021 13.6084 24.1803 13.3796 23.5182 13.0482C22.8561 12.7426 22.3718 12.3089 22.0403 11.7491C21.7087 11.2139 21.531 10.4746 21.531 9.58312C21.531 8.58923 21.7597 7.79939 22.1931 7.18746C22.6264 6.60117 23.2126 6.11794 23.9516 5.78626C24.6906 5.45473 25.5314 5.22615 26.4989 5.09841C27.4676 4.97039 28.4861 4.91943 29.5826 4.91943C30.729 4.91943 31.7984 4.97039 32.767 5.09841C33.7097 5.22615 34.5505 5.45473 35.2645 5.78626C35.9526 6.14286 36.5128 6.6272 36.8951 7.26449C37.2767 7.90138 37.4803 8.74218 37.4803 9.78677H33.9394C33.9394 9.14949 33.5829 8.74218 32.8949 8.53866C32.1809 8.3339 31.0085 8.23191 29.3789 8.23191C28.5371 8.23191 27.8501 8.25798 27.2889 8.28291C26.7286 8.3339 26.2953 8.4105 25.9637 8.48753C25.6332 8.58923 25.4035 8.71611 25.2758 8.84413C25.1488 8.99683 25.072 9.17442 25.072 9.4041C25.072 9.63411 25.123 9.83777 25.2507 9.96422C25.3526 10.1183 25.5823 10.2449 25.9128 10.3469C26.2443 10.4486 26.7536 10.5256 27.3907 10.6015C28.0278 10.6786 28.8687 10.7802 29.9131 10.8822C31.1113 10.9838 32.1809 11.0859 33.1745 11.2139C34.1432 11.3404 34.984 11.544 35.6969 11.8247C36.3848 12.1303 36.9461 12.5635 37.3277 13.1238C37.71 13.685 37.8886 14.475 37.8886 15.4685C37.8886 16.5133 37.71 17.3799 37.3277 18.0161C36.9461 18.679 36.4358 19.1881 35.774 19.5447C35.0858 19.9025 34.2699 20.131 33.3273 20.2586C32.3596 20.3857 31.2891 20.4366 30.1168 20.4366C28.9456 20.4366 27.8241 20.3857 26.7286 20.2586C25.6332 20.1061 24.6906 19.8515 23.8497 19.4688C23.0089 19.0866 22.3459 18.5263 21.8616 17.7875C21.3523 17.0482 21.0977 16.1057 21.0977 14.9086H24.6136Z" fill="#10100E"/>
<path d="M45.8337 8.57531V12.9979C45.8337 13.7522 45.8586 14.3504 45.9353 14.8184C46.0113 15.313 46.1393 15.6767 46.3169 15.9634C46.4955 16.2487 46.7762 16.4313 47.1067 16.5351C47.4384 16.6656 47.8966 16.7177 48.4319 16.7177H51.5914V20.4366H47.4384C46.6485 20.4366 45.9603 20.3324 45.3234 20.151C44.6861 19.9687 44.1259 19.6567 43.6926 19.2663C43.2344 18.8758 42.8778 18.3558 42.6481 17.7575C42.3935 17.1591 42.2655 16.4313 42.2655 15.5729V8.57531H39.0811V4.85676H42.2655V0.407715H45.8337V4.85676H51.5914V8.57531H45.8337Z" fill="#10100E"/>
<path d="M56.5099 5.66863V20.4365H52.9941V5.66863H56.5099ZM56.5099 0.377686V4.11381H52.9941V0.377686H56.5099Z" fill="#10100E"/>
<path d="M68.6127 4.88208C69.4275 4.88208 70.2174 4.98584 70.9567 5.19453C71.6955 5.40207 72.3834 5.76534 72.9697 6.31098C73.5559 6.85662 74.0142 7.58305 74.3708 8.49196C74.727 9.40062 74.906 10.5689 74.9306 11.9714L74.88 20.4367H71.3389V13.6599C71.3389 10.3613 70.0898 8.72586 67.5671 8.72586C66.4977 8.72586 65.6062 8.77796 64.9179 8.88173C64.204 9.01085 63.6178 9.19308 63.1856 9.42694C62.7523 9.66026 62.3957 9.99793 62.1411 10.3881C61.8854 10.8031 61.6818 11.2967 61.5288 11.8676V20.4367H58.0127V5.14282H61.5288V7.11587C61.7075 6.59598 61.987 6.18089 62.3697 5.8949C62.7523 5.6099 63.1856 5.37561 63.6948 5.21988C64.1791 5.06426 64.7393 4.96049 65.3255 4.93375C65.9118 4.90853 66.5227 4.88208 67.1599 4.88208H68.6127Z" fill="#10100E"/>
<path d="M84.6154 16.3136C86.2967 16.3136 87.5202 16.0084 88.3101 15.3961C89.1 14.7848 89.4823 13.7914 89.4823 12.4152C89.4823 11.0391 89.1 10.0456 88.3101 9.43435C87.5202 8.82242 86.2967 8.51681 84.6154 8.51681C82.9597 8.51681 81.7105 8.82242 80.9206 9.43435C80.1307 10.0456 79.7231 11.0391 79.7231 12.4152C79.7231 13.7914 80.1307 14.7848 80.9206 15.3961C81.7105 16.0084 82.9597 16.3136 84.6154 16.3136ZM89.4823 4.87305H93.0494V17.7407C93.0494 19.2695 92.8454 20.5947 92.4631 21.6901C92.0555 22.7857 91.4946 23.7021 90.8063 24.4163C90.1185 25.1292 89.2776 25.6644 88.3101 25.9961C87.3412 26.3275 86.2718 26.5053 85.1246 26.5053H77.5065L77.4815 22.8616H84.3347C85.2523 22.8616 86.0421 22.7857 86.6794 22.6326C87.3163 22.4801 87.8259 22.2254 88.2331 21.8677C88.6414 21.4866 88.947 21.0023 89.1506 20.365C89.3286 19.7278 89.4562 18.9379 89.4823 17.9693C89.1756 18.4027 88.8194 18.7342 88.4118 18.9888C88.0045 19.2435 87.5452 19.4474 87.036 19.5751C86.5264 19.7278 85.9655 19.8298 85.3542 19.8807C84.717 19.9317 84.0551 19.9578 83.3412 19.9578C82.2964 19.9578 81.3539 19.8049 80.488 19.5241C79.5955 19.2435 78.8573 18.7853 78.2204 18.1741C77.5832 17.5621 77.0729 16.7722 76.7423 15.8294C76.386 14.8869 76.207 13.7404 76.207 12.4152C76.207 11.0901 76.386 9.9439 76.7423 9.00115C77.0729 8.05865 77.5832 7.2687 78.2204 6.65649C78.8573 6.04524 79.5955 5.58693 80.488 5.30639C81.3539 5.02571 82.2964 4.87305 83.3412 4.87305C84.0551 4.87305 84.717 4.89908 85.3033 4.92404C85.8895 4.97472 86.4248 5.05178 86.908 5.17976C87.3922 5.30639 87.8515 5.45895 88.2841 5.68906C88.7174 5.91861 89.1 6.22425 89.4823 6.58057V4.87305Z" fill="#10100E"/>
<path d="M115.576 16.661V20.5083H100.722V2.67285H104.441V16.661H115.576Z" fill="#10100E"/>
<path d="M125.288 8.55817C124.702 8.55817 124.141 8.60913 123.632 8.6852C123.122 8.76222 122.663 8.91478 122.282 9.11843C121.873 9.32234 121.543 9.60277 121.262 9.9343C120.981 10.2909 120.753 10.7243 120.625 11.2595H129.849C129.696 10.7243 129.492 10.2909 129.212 9.9343C128.931 9.60277 128.575 9.32234 128.192 9.11843C127.811 8.91478 127.351 8.76222 126.868 8.6852C126.384 8.60913 125.849 8.55817 125.288 8.55817ZM125.11 17.2211C126.333 17.2211 127.326 17.0682 128.116 16.7369C128.88 16.4313 129.492 15.896 129.925 15.1322H133.442C133.033 17.0432 132.117 18.4692 130.69 19.3868C129.237 20.3048 127.377 20.7629 125.11 20.7629C123.963 20.7629 122.893 20.6104 121.899 20.3297C120.906 20.049 120.039 19.5909 119.3 18.9536C118.561 18.3167 117.976 17.5267 117.542 16.533C117.109 15.5654 116.905 14.393 116.905 13.0173C116.905 11.6411 117.109 10.4696 117.542 9.47504C117.95 8.48154 118.536 7.69174 119.275 7.05445C120.014 6.41828 120.88 5.95886 121.925 5.67929C122.97 5.39875 124.09 5.24609 125.313 5.24609C126.46 5.24609 127.555 5.37297 128.575 5.6534C129.594 5.93394 130.486 6.39249 131.225 7.08049C131.964 7.76834 132.575 8.66013 133.008 9.78175C133.442 10.9021 133.645 12.329 133.645 14.0368H120.523C120.625 14.6226 120.804 15.1322 121.083 15.5394C121.339 15.947 121.669 16.2784 122.078 16.5079C122.485 16.7626 122.944 16.9416 123.479 17.0432C123.988 17.1701 124.523 17.2211 125.11 17.2211Z" fill="#10100E"/>
<path d="M147.943 16.1292V14.2178C147.306 13.988 146.593 13.8106 145.752 13.7336C144.911 13.6575 143.918 13.6314 142.771 13.6314C141.446 13.6314 140.402 13.7845 139.663 14.0902C138.924 14.4214 138.541 14.9566 138.541 15.7205C138.541 16.1032 138.618 16.4088 138.771 16.6383C138.898 16.868 139.101 17.0456 139.382 17.1476C139.637 17.2753 139.942 17.3513 140.325 17.3773C140.707 17.4022 141.115 17.4283 141.573 17.4283C142.057 17.4283 142.568 17.4022 143.128 17.3513C143.663 17.3263 144.223 17.2496 144.809 17.1476C145.37 17.0456 145.931 16.919 146.465 16.74C147 16.5613 147.485 16.3578 147.943 16.1292ZM142.975 5.12158C144.249 5.12158 145.395 5.24846 146.44 5.52914C147.485 5.80968 148.376 6.24306 149.115 6.82825C149.854 7.44046 150.44 8.23041 150.874 9.19783C151.281 10.1914 151.485 11.3899 151.485 12.8167V20.3842H147.943V19.1096C146.874 19.7469 145.726 20.1801 144.529 20.3581C143.306 20.5367 141.981 20.6387 140.555 20.6387C139.714 20.6387 138.949 20.5616 138.26 20.3581C137.573 20.1801 136.987 19.8999 136.503 19.5172C136.019 19.1346 135.662 18.6515 135.408 18.0651C135.152 17.4793 135.025 16.74 135.025 15.8995C135.025 14.9307 135.229 14.1158 135.636 13.4528C136.019 12.7906 136.554 12.2553 137.242 11.8742C137.93 11.4915 138.694 11.2108 139.586 11.0333C140.453 10.8547 141.369 10.7776 142.338 10.7776H143.128C144.02 10.7776 144.885 10.8037 145.675 10.8547C146.465 10.9302 147.23 11.1093 147.943 11.3899C147.943 10.7776 147.79 10.2944 147.51 9.93668C147.23 9.5805 146.847 9.32585 146.414 9.14684C145.982 8.96925 145.497 8.8673 144.988 8.81631C144.478 8.79052 143.994 8.7656 143.561 8.7656C142.338 8.7656 141.191 8.84123 140.121 8.99418C139.05 9.14684 137.93 9.42756 136.784 9.86076V6.21699C137.318 6.0383 137.828 5.86068 138.311 5.70773C138.796 5.58014 139.255 5.45308 139.739 5.37605C140.223 5.29945 140.707 5.22354 141.242 5.17254C141.778 5.14651 142.338 5.12158 142.975 5.12158Z" fill="#10100E"/>
<path d="M165.143 16.0522C165.983 15.4153 166.392 14.3704 166.392 12.8926C166.392 11.3899 165.983 10.3454 165.143 9.70812C164.302 9.07097 163.105 8.76562 161.5 8.76562C159.894 8.76562 158.697 9.07097 157.881 9.70812C157.04 10.3454 156.633 11.3899 156.633 12.8926C156.633 14.3704 157.04 15.4153 157.881 16.0522C158.722 16.6893 159.92 16.9949 161.5 16.9949C163.08 16.9949 164.302 16.6893 165.143 16.0522ZM162.213 5.14653C162.799 5.17256 163.334 5.24848 163.844 5.35158C164.353 5.47821 164.837 5.65676 165.271 5.88577C165.704 6.11535 166.06 6.44674 166.392 6.87926V0H169.933V20.3842H166.392V18.6764C166.06 19.1096 165.704 19.4413 165.271 19.6959C164.837 19.9505 164.353 20.1545 163.844 20.2821C163.334 20.4348 162.799 20.5367 162.213 20.5877C161.627 20.6128 160.99 20.6387 160.328 20.6387C159.359 20.6387 158.442 20.5107 157.575 20.2311C156.684 19.9505 155.92 19.5172 155.257 18.9059C154.595 18.294 154.06 17.5042 153.677 16.5103C153.296 15.5168 153.091 14.3197 153.091 12.8926C153.091 11.4655 153.296 10.2434 153.677 9.24885C154.06 8.25535 154.595 7.46541 155.257 6.8543C155.92 6.24308 156.684 5.8097 157.575 5.52916C158.442 5.24848 159.359 5.1216 160.328 5.1216C160.99 5.1216 161.627 5.1216 162.213 5.14653Z" fill="#10100E"/>
<path d="M174.725 15.1097C174.725 15.5168 174.827 15.8485 175.005 16.1292C175.183 16.4088 175.464 16.6383 175.897 16.817C176.304 16.9949 176.84 17.1227 177.528 17.1986C178.216 17.2753 179.031 17.3263 180.024 17.3263C180.967 17.3263 181.757 17.3003 182.343 17.2496C182.929 17.2246 183.363 17.1476 183.694 17.0207C184 16.919 184.203 16.7661 184.305 16.5613C184.407 16.3838 184.458 16.1292 184.458 15.8485C184.458 15.5678 184.407 15.3392 184.305 15.1602C184.203 14.9817 183.974 14.855 183.643 14.7531C183.286 14.651 182.802 14.5744 182.165 14.4984C181.528 14.4474 180.661 14.3704 179.592 14.2948C178.267 14.1917 177.12 14.0651 176.126 13.9371C175.132 13.8106 174.291 13.5805 173.629 13.2492C172.967 12.9436 172.483 12.5104 172.151 11.9501C171.82 11.4148 171.642 10.6757 171.642 9.78416C171.642 8.79052 171.871 8.00072 172.304 7.38947C172.738 6.80332 173.324 6.31898 174.063 5.98731C174.802 5.65674 175.643 5.42705 176.61 5.29946C177.579 5.17254 178.597 5.12158 179.694 5.12158C180.84 5.12158 181.91 5.17254 182.878 5.29946C183.821 5.42705 184.662 5.65674 185.376 5.98731C186.064 6.34502 186.624 6.82825 187.006 7.46539C187.388 8.10239 187.592 8.94322 187.592 9.98767H184.051C184.051 9.3505 183.694 8.94322 183.006 8.73956C182.292 8.53605 181.12 8.43392 179.49 8.43392C178.648 8.43392 177.961 8.45899 177.4 8.48491C176.84 8.53605 176.406 8.61265 176.075 8.68857C175.744 8.79052 175.515 8.91826 175.387 9.04517C175.26 9.19783 175.183 9.37642 175.183 9.60611C175.183 9.83512 175.234 10.0387 175.362 10.1664C175.464 10.3193 175.694 10.4471 176.024 10.5491C176.355 10.651 176.865 10.7267 177.502 10.8037C178.139 10.8796 178.98 10.9812 180.024 11.0843C181.223 11.1859 182.292 11.2879 183.286 11.4148C184.254 11.5425 185.095 11.7462 185.808 12.0267C186.496 12.3324 187.057 12.7657 187.439 13.326C187.821 13.8861 188 14.676 188 15.6698C188 16.7144 187.821 17.5808 187.439 18.2181C187.057 18.8801 186.547 19.3903 185.885 19.7469C185.197 20.1035 184.381 20.3332 183.438 20.4597C182.471 20.5877 181.4 20.6387 180.228 20.6387C179.057 20.6387 177.935 20.5877 176.84 20.4597C175.744 20.3071 174.802 20.0525 173.961 19.6699C173.12 19.2886 172.457 18.7274 171.973 17.9885C171.464 17.2496 171.209 16.3068 171.209 15.1097H174.725Z" fill="#10100E"/>
</g>
<defs>
<clipPath id="clip0_25_9">
<rect width="188" height="27" fill="white"/>
</clipPath>
</defs>
</svg>
